<svg width="79" height="82" viewBox="0 0 79 82" fill="none" xmlns="http://www.w3.org/2000/svg">
<path d="M59.452 65.404H55.636L56.68 60.724H61.396L63.556 55.576L68.704 56.98L67.012 60.724H78.64V65.404H75.292C74.908 67.084 74.392 68.632 73.744 70.048C73.096 71.44 72.316 72.712 71.404 73.864L78.568 77.464L75.112 81.748L67.696 77.464C66.256 78.544 64.66 79.432 62.908 80.128C61.18 80.824 59.332 81.364 57.364 81.748L55.096 77.5C56.68 77.164 58.108 76.768 59.38 76.312C60.676 75.856 61.864 75.316 62.944 74.692L58.084 71.884C57.82 71.644 57.628 71.368 57.508 71.056C57.388 70.744 57.388 70.42 57.508 70.084L59.452 65.404ZM55.06 57.016H51.964V63.604L54.808 62.92L55.348 67.42L51.964 68.248V78.544C51.964 79.696 51.604 80.536 50.884 81.064C50.188 81.592 49.264 81.808 48.112 81.712L43.396 81.316V77.104L45.88 77.32C46.36 77.344 46.6 77.128 46.6 76.672V69.508L43.468 70.264L42.928 65.728L46.6 64.864V57.016H43L43.72 52.336H46.6V46.072H51.964V52.336H55.06V57.016ZM70 46.072V50.356H76.84C77.344 50.356 77.764 50.536 78.1 50.896C78.46 51.256 78.64 51.676 78.64 52.156V58.564H73.456V55.648C73.456 55.384 73.36 55.168 73.168 55C73 54.832 72.796 54.748 72.556 54.748H62.08C61.816 54.748 61.6 54.832 61.432 55C61.264 55.168 61.18 55.384 61.18 55.648V58.564H55.996V52.156C55.996 51.676 56.164 51.256 56.5 50.896C56.86 50.536 57.28 50.356 57.76 50.356H64.636V46.9L70 46.072ZM63.196 69.112C63.148 69.256 63.148 69.4 63.196 69.544C63.244 69.688 63.328 69.796 63.448 69.868L66.76 71.524C68.176 69.82 69.22 67.78 69.892 65.404H64.888L63.196 69.112Z" fill="var(-----------A1, #242424)"/>
<path d="M32.76 81.604C29.136 80.452 25.932 78.556 23.148 75.916C20.388 73.276 18.144 69.796 16.416 65.476H12.816V76.276C12.816 76.756 12.9 77.068 13.068 77.212C13.236 77.332 13.584 77.368 14.112 77.32L19.332 76.888V81.208L11.124 81.784C9.828 81.88 8.88 81.616 8.28 80.992C7.704 80.392 7.416 79.54 7.416 78.436V65.476H0.792L1.836 60.796H7.416V46.108H12.816V60.796H34.128V65.476H21.456C22.92 68.404 24.78 70.792 27.036 72.64C29.316 74.488 32.076 75.904 35.316 76.888L32.76 81.604ZM32.832 50.752L18.504 58.636L15.696 54.496L30.204 46.432L32.832 50.752Z" fill="var(-----------A1, #242424)"/>
<path d="M63.52 0V4.788H76.48V9.468H63.52V14.4H78.64V19.044H63.52V30.24H70.504C70.624 30.24 70.72 30.192 70.792 30.096C70.888 30 70.936 29.892 70.936 29.772V21.744H76.444V33.084C76.444 33.588 76.252 34.02 75.868 34.38C75.508 34.764 75.076 34.956 74.572 34.956H47.068C46.564 34.956 46.12 34.764 45.736 34.38C45.376 34.02 45.196 33.588 45.196 33.084V21.744H50.704V29.772C50.704 29.892 50.74 30 50.812 30.096C50.908 30.192 51.016 30.24 51.136 30.24H58.12V19.044H43L44.008 14.4H58.12V9.468H45.16L46.168 4.788H58.12V0H63.52Z" fill="var(-----------A1, #242424)"/>
<path d="M3.708 12.528C3.708 12.024 3.888 11.604 4.248 11.268C4.608 10.908 5.028 10.728 5.508 10.728H14.904V0.0719986H20.268V3.168H35.208V7.812H20.268V10.728H31.284C31.764 10.728 32.184 10.908 32.544 11.268C32.904 11.604 33.084 12.024 33.084 12.528V23.22C33.084 23.7 32.916 24.12 32.58 24.48C32.268 24.84 31.836 25.02 31.284 25.02H5.508C5.028 25.02 4.608 24.852 4.248 24.516C3.888 24.156 3.708 23.724 3.708 23.22V12.528ZM9.108 19.44C9.108 19.704 9.192 19.92 9.36 20.088C9.528 20.256 9.744 20.34 10.008 20.34H26.784C27.048 20.34 27.264 20.256 27.432 20.088C27.6 19.92 27.684 19.704 27.684 19.44V16.308C27.684 16.044 27.6 15.828 27.432 15.66C27.264 15.492 27.048 15.408 26.784 15.408H10.008C9.744 15.408 9.528 15.492 9.36 15.66C9.192 15.828 9.108 16.044 9.108 16.308V19.44ZM8.856 28.44L4.716 35.856L0 33.264L4.14 25.812L8.856 28.44ZM32.364 26.208L35.676 33.876L30.672 35.856L27.36 28.188L32.364 26.208ZM23.976 26.064L26.676 33.696L21.564 35.388L18.864 27.756L23.976 26.064ZM15.624 26.352L18.144 33.84L12.996 35.388L10.476 27.9L15.624 26.352Z" fill="var(-----------A1, #242424)"/>
</svg>
