<svg width="64" height="64" viewBox="0 0 64 64" fill="none" xmlns="http://www.w3.org/2000/svg">
<path d="M40.7397 20.2056C41.6076 19.3377 43.0145 19.3377 43.8823 20.2056C44.7501 21.0734 44.7501 22.4803 43.8823 23.3481L35.187 32.0425L43.8794 40.7349C44.7468 41.6027 44.7471 43.0097 43.8794 43.8774C43.0117 44.7451 41.6047 44.7448 40.7368 43.8774L32.0444 35.1851L23.353 43.8774C22.4852 44.7449 21.0782 44.7451 20.2104 43.8774C19.3427 43.0097 19.343 41.6027 20.2104 40.7349L28.9019 32.0425L20.2075 23.3481C19.3397 22.4803 19.3397 21.0734 20.2075 20.2056C21.0753 19.3377 22.4823 19.3377 23.3501 20.2056L32.0444 28.8999L40.7397 20.2056Z" fill="white"/>
</svg>
