<svg width="33" height="38" viewBox="0 0 33 38" fill="none" xmlns="http://www.w3.org/2000/svg">
<path d="M16.4072 31.9307C17.8316 31.9307 18.9863 33.0854 18.9863 34.5098C18.9863 35.9341 17.8316 37.0889 16.4072 37.0889C14.9828 37.0889 13.8281 35.9341 13.8281 34.5098C13.8281 33.0854 14.9828 31.9307 16.4072 31.9307ZM1.29004 24.2959C2.52348 23.5839 4.10026 24.006 4.8125 25.2393C5.52464 26.4727 5.10248 28.0504 3.86914 28.7627C2.63559 29.4749 1.05789 29.0519 0.345703 27.8184C-0.366386 26.5848 0.056531 25.0081 1.29004 24.2959ZM27.999 25.2373C28.7112 24.0038 30.2889 23.5808 31.5225 24.293C32.7558 25.0052 33.178 26.5829 32.4658 27.8164C31.7536 29.0497 30.1768 29.4718 28.9434 28.7598C27.7099 28.0476 27.287 26.4708 27.999 25.2373ZM0.34668 9.27344C1.05887 8.03989 2.63657 7.61691 3.87012 8.3291C5.10351 9.04135 5.52563 10.6191 4.81348 11.8525C4.10132 13.0858 2.52442 13.5086 1.29102 12.7969C0.057487 12.0847 -0.36546 10.507 0.34668 9.27344ZM28.9434 8.32812C30.1769 7.61593 31.7546 8.03891 32.4668 9.27246C33.1789 10.506 32.756 12.0828 31.5225 12.7949C30.289 13.507 28.7123 13.0849 28 11.8516C27.2878 10.6181 27.71 9.04037 28.9434 8.32812ZM16.4072 0C17.8316 5.79882e-06 18.9863 1.15472 18.9863 2.5791C18.9862 4.00335 17.8315 5.1582 16.4072 5.1582C14.9829 5.1582 13.8283 4.00335 13.8281 2.5791C13.8281 1.15472 14.9828 0 16.4072 0Z" fill="white"/>
</svg>
