<svg width="32" height="28" viewBox="0 0 32 28" fill="none" xmlns="http://www.w3.org/2000/svg">
<path d="M4.37793 13.9238C4.37784 15.1326 3.39725 16.1123 2.18848 16.1123C0.979835 16.1121 8.95226e-05 15.1325 -6.0863e-07 13.9238C-5.55794e-07 12.7151 0.97978 11.7355 2.18848 11.7354C3.39731 11.7354 4.37793 12.715 4.37793 13.9238ZM10.8584 1.09473C11.4627 2.14149 11.1042 3.48045 10.0576 4.08496C9.01086 4.68931 7.6719 4.33077 7.06738 3.28418C6.463 2.23736 6.82143 0.898414 7.86816 0.293944C8.91499 -0.310441 10.2539 0.0479692 10.8584 1.09473ZM10.0586 23.7627C11.1055 24.3671 11.4648 25.706 10.8604 26.7529C10.2559 27.7998 8.91698 28.1581 7.87012 27.5537C6.82344 26.9493 6.46515 25.6112 7.06933 24.5645C7.67368 23.5177 9.01177 23.1586 10.0586 23.7627ZM23.6074 0.293945C24.6542 0.898279 25.0133 2.23639 24.4092 3.2832C23.8048 4.33007 22.4658 4.68934 21.4189 4.08496C20.3721 3.48054 20.0137 2.14161 20.6182 1.09473C21.2226 0.0480753 22.5606 -0.310299 23.6074 0.293945ZM24.4102 24.5645C25.0144 25.6113 24.6561 26.9493 23.6094 27.5537C22.5625 28.1581 21.2236 27.7998 20.6191 26.7529C20.0148 25.7061 20.374 24.3671 21.4209 23.7627C22.4677 23.1586 23.8058 23.5177 24.4102 24.5645ZM31.4766 13.9238C31.4765 15.1326 30.4968 16.1123 29.2881 16.1123C28.0793 16.1123 27.0997 15.1326 27.0996 13.9238C27.0996 12.715 28.0793 11.7354 29.2881 11.7354C30.4969 11.7354 31.4766 12.715 31.4766 13.9238Z" fill="white"/>
</svg>
