<svg width="24" height="24" viewBox="0 0 24 24" fill="none" xmlns="http://www.w3.org/2000/svg">
<path d="M0.187217 2.34714C-0.500595 1.12661 0.829703 -0.23679 2.06677 0.420819L5.11736 2.04247C9.12885 4.17492 13.9506 4.11566 17.9084 1.88528L20.9183 0.189148C22.1388 -0.498664 23.5022 0.831633 22.8446 2.0687L21.2229 5.11929C19.0905 9.13078 19.1497 13.9525 21.3801 17.9104L23.0763 20.9202C23.7641 22.1407 22.4338 23.5041 21.1967 22.8465L18.1461 21.2249C14.1346 19.0924 9.3129 19.1517 5.35503 21.3821L2.34521 23.0782C1.12468 23.766 -0.238721 22.4357 0.418888 21.1986L2.04054 18.148C4.17299 14.1366 4.11373 9.31483 1.88335 5.35696L0.187217 2.34714Z" fill="#FFD970"/>
</svg>
