<svg width="18" height="18" viewBox="0 0 18 18" fill="none" xmlns="http://www.w3.org/2000/svg">
<path d="M7.96612 0.56026C8.18459 -0.186755 9.24281 -0.186753 9.46127 0.560263L10 2.40239C10.7084 4.82475 12.6026 6.71898 15.025 7.4274L16.8671 7.96612C17.6142 8.18459 17.6141 9.24281 16.8671 9.46127L15.025 10C12.6026 10.7084 10.7084 12.6026 10 15.025L9.46127 16.8671C9.24281 17.6142 8.18459 17.6141 7.96612 16.8671L7.4274 15.025C6.71898 12.6026 4.82475 10.7084 2.40238 10L0.560261 9.46127C-0.186755 9.24281 -0.186753 8.18459 0.560262 7.96612L2.40239 7.4274C4.82475 6.71898 6.71898 4.82475 7.4274 2.40239L7.96612 0.56026Z" fill="#FFF170"/>
</svg>
