<svg width="33" height="33" viewBox="0 0 33 33" fill="none" xmlns="http://www.w3.org/2000/svg">
<path d="M20.2383 0.611605C21.1499 -0.602 23.0815 0.124356 22.9675 1.63786L22.6864 5.37013C22.3169 10.278 24.4743 15.0358 28.4097 17.9916L31.4024 20.2394C32.616 21.1509 31.8897 23.0825 30.3762 22.9685L26.6439 22.6874C21.736 22.3179 16.9782 24.4753 14.0224 28.4107L11.7747 31.4034C10.8632 32.617 8.93154 31.8907 9.04551 30.3772L9.32657 26.6449C9.69615 21.737 7.53872 16.9792 3.60332 14.0234L0.610598 11.7757C-0.603008 10.8642 0.123348 8.93254 1.63685 9.04652L5.36913 9.32757C10.277 9.69716 15.0348 7.53972 17.9906 3.60433L20.2383 0.611605Z" fill="#FFF170"/>
</svg>
