<svg width="24" height="24" viewBox="0 0 24 24" fill="none" xmlns="http://www.w3.org/2000/svg">
<path d="M18.5448 4.04289C18.9354 3.65237 19.5684 3.65237 19.9589 4.04289C20.3494 4.43342 20.3494 5.06643 19.9589 5.45696L13.415 11.9999L19.9589 18.5439C20.3494 18.9344 20.3494 19.5684 19.9589 19.9589C19.5684 20.3494 18.9344 20.3494 18.5439 19.9589L12.0009 13.415L5.45793 19.9589C5.06741 20.3494 4.43341 20.3494 4.04289 19.9589C3.65238 19.5684 3.65239 18.9344 4.04289 18.5439L10.5859 11.9999L4.04289 5.45696C3.65237 5.06643 3.65237 4.43342 4.04289 4.04289C4.43342 3.65237 5.06643 3.65237 5.45696 4.04289L12.0009 10.5859L18.5448 4.04289Z" fill="var(-------------A2D, white)" fill-opacity="0.6"/>
</svg>
