<svg width="72" height="72" viewBox="0 0 72 72" fill="none" xmlns="http://www.w3.org/2000/svg">
<g opacity="0.92" filter="url(#filter0_d_951_8384)">
<path d="M57.25 11.75C61.116 11.75 64.25 14.884 64.25 18.75V50.25C64.25 54.116 61.116 57.25 57.25 57.25H46.257C44.9132 57.25 43.6396 57.8506 42.7848 58.8875L38.3125 64.3125C37.1125 65.7682 34.8825 65.7683 33.6826 64.3125L29.2113 58.8878C28.3565 57.8507 27.0828 57.25 25.7389 57.25H14.75C10.884 57.25 7.75 54.116 7.75 50.25V18.75C7.75 14.884 10.884 11.75 14.75 11.75H57.25ZM22 30.5C19.7909 30.5 18 32.2909 18 34.5C18 36.7091 19.7909 38.5 22 38.5C24.2091 38.5 26 36.7091 26 34.5C26 32.2909 24.2091 30.5 22 30.5ZM36 30.5C33.7909 30.5 32 32.2909 32 34.5C32 36.7091 33.7909 38.5 36 38.5C38.2091 38.5 40 36.7091 40 34.5C40 32.2909 38.2091 30.5 36 30.5ZM50 30.5C47.7909 30.5 46 32.2909 46 34.5C46 36.7091 47.7909 38.5 50 38.5C52.2091 38.5 54 36.7091 54 34.5C54 32.2909 52.2091 30.5 50 30.5Z" fill="white"/>
</g>
<defs>
<filter id="filter0_d_951_8384" x="-2" y="0" width="76" height="76" filterUnits="userSpaceOnUse" color-interpolation-filters="sRGB">
<feFlood flood-opacity="0" result="BackgroundImageFix"/>
<feColorMatrix in="SourceAlpha" type="matrix" values="0 0 0 0 0 0 0 0 0 0 0 0 0 0 0 0 0 0 127 0" result="hardAlpha"/>
<feOffset dy="2"/>
<feGaussianBlur stdDeviation="1"/>
<feColorMatrix type="matrix" values="0 0 0 0 0 0 0 0 0 0 0 0 0 0 0 0 0 0 0.08 0"/>
<feBlend mode="normal" in2="BackgroundImageFix" result="effect1_dropShadow_951_8384"/>
<feBlend mode="normal" in="SourceGraphic" in2="effect1_dropShadow_951_8384" result="shape"/>
</filter>
</defs>
</svg>
