<svg width="72" height="72" viewBox="0 0 72 72" fill="none" xmlns="http://www.w3.org/2000/svg">
<g opacity="0.92" filter="url(#filter0_d_951_8381)">
<path fill-rule="evenodd" clip-rule="evenodd" d="M36 17.8134L34.5389 16.2501C31.5099 13.0094 27.2527 11.0021 22.5408 11L22.2625 11.0021L22.239 11.0018C22.1651 11.0006 22.0909 11 22.0167 11C14.3123 11 8 17.3803 8 25.3338C8 29.3845 8.82876 35.5567 16.6183 43.7761C25.9223 53.5935 30.9741 57.51 34.5096 60.2509C34.8087 60.4829 35.0971 60.7064 35.3762 60.9244C35.7425 61.2105 36.2575 61.2105 36.6238 60.9244C36.9029 60.7064 37.1913 60.4829 37.4904 60.2509C41.0259 57.51 46.0777 53.5935 55.3817 43.7761C63.1712 35.5567 64 29.3845 64 25.3338C64 17.3803 57.6877 11 49.9833 11C49.9091 11 49.8349 11.0006 49.761 11.0018L49.7375 11.0021L49.4667 11C49.4642 11 49.4617 11 49.4592 11C44.7473 11.0021 40.4901 13.0094 37.4611 16.2501L36 17.8134Z" fill="white" stroke="white" stroke-width="4.5" stroke-linejoin="round"/>
</g>
<defs>
<filter id="filter0_d_951_8381" x="-2" y="0" width="76" height="76" filterUnits="userSpaceOnUse" color-interpolation-filters="sRGB">
<feFlood flood-opacity="0" result="BackgroundImageFix"/>
<feColorMatrix in="SourceAlpha" type="matrix" values="0 0 0 0 0 0 0 0 0 0 0 0 0 0 0 0 0 0 127 0" result="hardAlpha"/>
<feOffset dy="2"/>
<feGaussianBlur stdDeviation="1"/>
<feColorMatrix type="matrix" values="0 0 0 0 0 0 0 0 0 0 0 0 0 0 0 0 0 0 0.08 0"/>
<feBlend mode="normal" in2="BackgroundImageFix" result="effect1_dropShadow_951_8381"/>
<feBlend mode="normal" in="SourceGraphic" in2="effect1_dropShadow_951_8381" result="shape"/>
</filter>
</defs>
</svg>
