<svg width="48" height="48" viewBox="0 0 48 48" fill="none" xmlns="http://www.w3.org/2000/svg">
<path d="M23 6C32.3888 6 40 13.6112 40 23C40 27.1546 38.5084 30.9601 36.0332 33.9131L43.5586 41.4395C44.1441 42.0253 44.1443 42.9749 43.5586 43.5605C42.9728 44.1458 42.0231 44.146 41.4375 43.5605L33.9121 36.0342C30.9593 38.5089 27.1541 40 23 40C13.6112 40 6 32.3888 6 23C6 13.6112 13.6112 6 23 6ZM23 9C15.268 9 9 15.268 9 23C9 30.732 15.268 37 23 37C30.732 37 37 30.732 37 23C37 15.268 30.732 9 23 9Z" fill="white"/>
</svg>
